# xmcd
#
# Track frame offsets: 
#        150
#        32851
#        54226
#        80728
#        101275
#        123456
#
# Disc length: 2032 seconds
#
# Revision: 0
# Processed by: cddbd v1.5.2PL0 Copyright (c) Steve Scherf et al.
# Submitted via: ExactAudioCopy v0.99pb3
#
DISCID=4507ee06
DTITLE=Windswept - The Great Cold Steppe [DigiCD]
DYEAR=2017
DGENRE=Black Metal
TTITLE0=Black Horizon Is the Gates of a Blizzard
TTITLE1=Shining, So Sleeps Infinite Ancient Steppe
TTITLE2=The Stars Are Cold and Indifferent, Sow Their Gleaming Ashes
TTITLE3=The Great Shepherd Rides His Storms
TTITLE4=Blinding and Bottomless Abyss Is Howling
TTITLE5=A Spiteful Wind Buries All the Lonely Whispers
EXTD=
EXTT0=
EXTT1=
EXTT2=
EXTT3=
EXTT4=
EXTT5=
PLAYORDER=
